<svg width="16" height="17" viewBox="0 0 16 17" fill="none" xmlns="http://www.w3.org/2000/svg">
<g clip-path="url(#clip0_107_1051)">
<path d="M15.989 8.33891C15.989 7.6834 15.9346 7.20505 15.8168 6.70898H8.15918V9.66764H12.654C12.5634 10.4029 12.0741 11.5102 10.9866 12.2543L10.9713 12.3533L13.3925 14.1868L13.5603 14.2032C15.1008 12.8124 15.989 10.7661 15.989 8.33891Z" fill="#4285F4"/>
<path d="M8.15912 16.134C10.3612 16.134 12.2099 15.4253 13.5602 14.2029L10.9865 12.254C10.2978 12.7235 9.37344 13.0513 8.15912 13.0513C6.00232 13.0513 4.17176 11.6605 3.51921 9.73828L3.42356 9.74622L0.905971 11.6508L0.873047 11.7402C2.21425 14.3446 4.96918 16.134 8.15912 16.134Z" fill="#34A853"/>
<path d="M3.51954 9.7393C3.34736 9.24324 3.24771 8.7117 3.24771 8.16251C3.24771 7.61326 3.34736 7.08178 3.51048 6.58572L3.50592 6.48007L0.956777 4.54492L0.873374 4.5837C0.3206 5.66443 0.00341797 6.87805 0.00341797 8.16251C0.00341797 9.44697 0.3206 10.6605 0.873374 11.7413L3.51954 9.7393Z" fill="#FBBC05"/>
<path d="M8.15912 3.27214C9.69062 3.27214 10.7237 3.9188 11.3128 4.45919L13.6146 2.26231C12.2009 0.97785 10.3612 0.189453 8.15912 0.189453C4.96918 0.189453 2.21425 1.97883 0.873047 4.58316L3.51015 6.58518C4.17176 4.66292 6.00232 3.27214 8.15912 3.27214Z" fill="#EB4335"/>
</g>
<defs>
<clipPath id="clip0_107_1051">
<rect width="16" height="16" fill="white" transform="translate(0 0.189453)"/>
</clipPath>
</defs>
</svg>
